<?xml version="1.0" encoding="utf-8"?>
<!-- Generator: Adobe Illustrator 23.0.0, SVG Export Plug-In . SVG Version: 6.00 Build 0)  -->
<svg version="1.1" id="Layer_1" xmlns="http://www.w3.org/2000/svg" xmlns:xlink="http://www.w3.org/1999/xlink" x="0px" y="0px"
	 viewBox="0 0 42.82 45.44" enable-background="new 0 0 42.82 45.44" xml:space="preserve">
<g>
	<path fill="#333333" d="M0,45.44h18.05v-1.02l-5.38-0.51V16.9h11.46V43.9l-3.39,0.51v1.02h18.05v-1.02l-5.76-0.51V16.9h7.87v-1.02
		h-7.87v-1.98c0-1.88,0.03-3.31,0.1-4.29c0.06-0.98,0.2-1.83,0.42-2.56l0.19-0.9h9.09V0H35.9l-7.62,6.59
		c-1.37,1.2-2.4,2.49-3.1,3.87c-0.7,1.39-1.06,3-1.06,4.83v0.58H12.67v-1.54c0-1.92,0.03-3.36,0.1-4.32s0.2-1.8,0.42-2.53l0.19-0.9
		h6.66l7.36-6.21H15.55L8,6.98c-1.41,1.2-2.46,2.48-3.17,3.84c-0.7,1.37-1.06,2.94-1.06,4.74v0.32H0v1.02h3.78V43.9L0,44.42V45.44z"
		/>
</g>
</svg>
